<svg width="300" height="350" viewBox="0 0 300 350" fill="none" xmlns="http://www.w3.org/2000/svg">
<rect width="300" height="350" rx="20" fill="#4CC9F0"/>
<path d="M26.3344 235.032C27.8861 235.032 29.4339 235.187 30.9548 235.497C31.5213 232.654 32.7207 229.978 34.4629 227.669C36.2052 225.36 38.4449 223.479 41.0136 222.167C43.5824 220.854 46.4133 220.145 49.2936 220.093C52.1738 220.04 55.0285 220.645 57.6428 221.863C58.7826 218.703 60.5296 215.8 62.7841 213.32C65.0387 210.84 67.7565 208.831 70.7826 207.407C73.8086 205.984 77.0836 205.175 80.4205 205.025C83.7574 204.876 87.0908 205.389 90.2305 206.536C93.3702 207.684 96.2547 209.442 98.7192 211.711C101.184 213.98 103.18 216.715 104.594 219.76C106.008 222.806 106.813 226.102 106.961 229.46C107.11 232.818 106.599 236.173 105.46 239.333C111.021 239.508 116.291 241.876 120.133 245.926C123.975 249.976 126.081 255.383 125.998 260.982C125.914 266.581 123.647 271.922 119.686 275.854C115.724 279.786 110.386 281.993 104.822 282H26.3344C20.1457 282 14.2105 279.526 9.83449 275.122C5.45844 270.718 3 264.744 3 258.516C3 252.288 5.45844 246.315 9.83449 241.91C14.2105 237.506 20.1457 235.032 26.3344 235.032V235.032Z" fill="white"/>
<path d="M204.737 177.658C206.174 177.658 207.607 177.802 209.016 178.088C209.54 175.465 210.65 172.995 212.263 170.864C213.876 168.733 215.95 166.997 218.328 165.786C220.706 164.575 223.327 163.92 225.993 163.872C228.66 163.823 231.303 164.381 233.723 165.505C235.866 159.631 240.243 154.85 245.895 152.209C251.547 149.568 258.013 149.284 263.873 151.418C269.734 153.552 274.512 157.931 277.159 163.595C279.805 169.258 280.105 175.743 277.992 181.627C283.139 181.791 288.016 183.977 291.571 187.714C295.126 191.451 297.075 196.439 296.998 201.604C296.92 206.769 294.823 211.697 291.157 215.325C287.492 218.953 282.552 220.991 277.402 221H204.737C201.889 221.017 199.065 220.47 196.429 219.389C193.792 218.307 191.395 216.714 189.375 214.7C187.355 212.686 185.751 210.291 184.657 207.653C183.563 205.015 183 202.186 183 199.329C183 196.471 183.563 193.642 184.657 191.004C185.751 188.366 187.355 185.972 189.375 183.957C191.395 181.943 193.792 180.35 196.429 179.269C199.065 178.188 201.889 177.64 204.737 177.658V177.658Z" fill="white"/>
<path d="M177.661 47.036C175.578 47.0358 173.499 47.2447 171.457 47.6595C170.696 43.8485 169.086 40.2603 166.746 37.1647C164.406 34.0691 161.399 31.5468 157.949 29.7875C154.499 28.0281 150.697 27.0775 146.829 27.007C142.961 26.9366 139.127 27.7483 135.616 29.381C132.48 20.8868 126.127 13.9834 117.944 10.1765C109.761 6.36964 100.411 5.9683 91.9349 9.06004C83.4584 12.1518 76.5429 18.4857 72.6968 26.6801C68.8507 34.8746 68.3862 44.2645 71.4045 52.8017C63.9688 53.0833 56.9382 56.2776 51.8172 61.7011C46.6961 67.1246 43.8914 74.3464 44.0032 81.8211C44.1151 89.2958 47.1346 96.4297 52.4156 101.696C57.6966 106.962 64.8196 109.943 72.2603 110H177.664C185.975 110 193.945 106.683 199.822 100.779C205.699 94.8751 209 86.8675 209 78.518C209 70.1684 205.699 62.1609 199.822 56.2569C193.945 50.3528 185.975 47.036 177.664 47.036H177.661Z" fill="white"/>
<path opacity="0.52" d="M228.514 41.9758C226.686 41.9755 224.863 42.1578 223.071 42.5201C222.405 39.1895 220.992 36.0537 218.94 33.3484C216.887 30.643 214.249 28.4387 211.223 26.9013C208.196 25.3638 204.861 24.5331 201.468 24.4718C198.075 24.4105 194.712 25.1201 191.632 26.5473C188.879 19.1274 183.306 13.0979 176.13 9.77337C168.953 6.44889 160.754 6.09911 153.321 8.80032C145.887 11.5015 139.823 17.0346 136.449 24.1931C133.075 31.3516 132.665 39.5549 135.31 47.0143C128.738 47.1897 122.501 49.9511 117.951 54.6995C113.4 59.4479 110.904 65.8004 111.003 72.3791C111.102 78.9578 113.788 85.2322 118.479 89.8413C123.171 94.4504 129.488 97.0226 136.062 96.9998H228.514C235.804 96.9998 242.795 94.1015 247.949 88.9423C253.104 83.7832 256 76.7859 256 69.4897C256 62.1936 253.104 55.1963 247.949 50.0371C242.795 44.878 235.804 41.9796 228.514 41.9796V41.9758Z" fill="white"/>
</svg>
