<svg width="300" height="350" viewBox="0 0 300 350" fill="none" xmlns="http://www.w3.org/2000/svg">
<rect width="300" height="350" rx="20" fill="url(#paint0_linear_3_46)"/>
<path d="M23.3344 229.032C24.8861 229.032 26.4339 229.187 27.9548 229.497C28.5213 226.654 29.7207 223.978 31.4629 221.669C33.2052 219.36 35.4449 217.479 38.0136 216.167C40.5824 214.854 43.4133 214.145 46.2936 214.093C49.1738 214.04 52.0285 214.645 54.6428 215.863C55.7826 212.703 57.5296 209.8 59.7841 207.32C62.0387 204.84 64.7565 202.831 67.7826 201.407C70.8086 199.984 74.0836 199.175 77.4205 199.025C80.7574 198.876 84.0908 199.389 87.2305 200.536C90.3702 201.684 93.2547 203.442 95.7192 205.711C98.1837 207.98 100.18 210.715 101.594 213.76C103.008 216.806 103.813 220.102 103.961 223.46C104.11 226.818 103.599 230.173 102.46 233.333C108.021 233.508 113.291 235.876 117.133 239.926C120.975 243.976 123.081 249.383 122.998 254.982C122.914 260.581 120.647 265.922 116.686 269.854C112.724 273.786 107.386 275.993 101.822 276H23.3344C17.1457 276 11.2105 273.526 6.83449 269.122C2.45844 264.718 0 258.744 0 252.516C0 246.288 2.45844 240.315 6.83449 235.91C11.2105 231.506 17.1457 229.032 23.3344 229.032V229.032Z" fill="#DDDDDD"/>
<path d="M201.737 171.658C203.174 171.658 204.607 171.802 206.016 172.088C206.54 169.465 207.65 166.995 209.263 164.864C210.876 162.733 212.95 160.997 215.328 159.786C217.706 158.575 220.327 157.92 222.993 157.872C225.66 157.823 228.303 158.381 230.723 159.505C232.866 153.631 237.243 148.85 242.895 146.209C248.547 143.568 255.013 143.284 260.873 145.418C266.734 147.552 271.512 151.931 274.159 157.595C276.805 163.258 277.105 169.743 274.992 175.627C280.139 175.791 285.016 177.977 288.571 181.714C292.126 185.451 294.075 190.439 293.998 195.604C293.92 200.769 291.823 205.697 288.157 209.325C284.492 212.953 279.552 214.991 274.402 215H201.737C198.889 215.017 196.065 214.47 193.429 213.389C190.792 212.307 188.395 210.714 186.375 208.7C184.355 206.686 182.751 204.291 181.657 201.653C180.563 199.015 180 196.186 180 193.329C180 190.471 180.563 187.642 181.657 185.004C182.751 182.366 184.355 179.972 186.375 177.957C188.395 175.943 190.792 174.35 193.429 173.269C196.065 172.188 198.889 171.64 201.737 171.658V171.658Z" fill="#DDDDDD"/>
<path d="M174.661 41.036C172.578 41.0358 170.499 41.2447 168.457 41.6595C167.696 37.8485 166.086 34.2603 163.746 31.1647C161.406 28.0691 158.399 25.5468 154.949 23.7875C151.499 22.0281 147.697 21.0775 143.829 21.007C139.961 20.9366 136.127 21.7483 132.616 23.381C129.48 14.8868 123.127 7.98337 114.944 4.1765C106.761 0.369636 97.4113 -0.031702 88.9349 3.06004C80.4584 6.15177 73.5429 12.4857 69.6968 20.6801C65.8507 28.8746 65.3862 38.2645 68.4045 46.8017C60.9688 47.0833 53.9382 50.2776 48.8172 55.7011C43.6961 61.1246 40.8914 68.3464 41.0032 75.8211C41.1151 83.2958 44.1346 90.4297 49.4156 95.6961C54.6966 100.962 61.8196 103.943 69.2603 104H174.664C182.975 104 190.945 100.683 196.822 94.7791C202.699 88.8751 206 80.8675 206 72.518C206 64.1684 202.699 56.1609 196.822 50.2569C190.945 44.3528 182.975 41.036 174.664 41.036H174.661Z" fill="#DDDDDD"/>
<path opacity="0.52" d="M225.514 35.9758C223.686 35.9755 221.863 36.1578 220.071 36.5201C219.405 33.1895 217.992 30.0537 215.94 27.3484C213.887 24.643 211.249 22.4387 208.223 20.9013C205.196 19.3638 201.861 18.5331 198.468 18.4718C195.075 18.4105 191.712 19.1201 188.632 20.5473C185.879 13.1274 180.306 7.09786 173.13 3.77337C165.953 0.448888 157.754 0.0991147 150.321 2.80032C142.887 5.50152 136.823 11.0346 133.449 18.1931C130.075 25.3516 129.665 33.5549 132.31 41.0143C125.738 41.1897 119.501 43.9511 114.951 48.6995C110.4 53.4479 107.904 59.8004 108.003 66.3791C108.102 72.9578 110.788 79.2322 115.479 83.8413C120.171 88.4504 126.488 91.0226 133.062 90.9998H225.514C232.804 90.9998 239.795 88.1015 244.949 82.9423C250.104 77.7832 253 70.7859 253 63.4897C253 56.1936 250.104 49.1963 244.949 44.0371C239.795 38.878 232.804 35.9796 225.514 35.9796V35.9758Z" fill="#DDDDDD" fill-opacity="0.79"/>
<defs>
<linearGradient id="paint0_linear_3_46" x1="150" y1="127.5" x2="150" y2="350" gradientUnits="userSpaceOnUse">
<stop stop-color="#1A3245"/>
<stop offset="1" stop-color="#1A3245" stop-opacity="0.41"/>
</linearGradient>
</defs>
</svg>
